<svg width="40" height="40" viewBox="0 0 40 40" fill="none" xmlns="http://www.w3.org/2000/svg">
<rect width="40" height="40" rx="8" fill="#3B82F6"/>
<path d="M17 18.25C15.7561 18.25 14.75 17.2439 14.75 16C14.75 14.7561 15.7561 13.75 17 13.75C18.2439 13.75 19.25 14.7561 19.25 16C19.25 17.2439 18.2439 18.25 17 18.25ZM17 14.25C16.0339 14.25 15.25 15.0339 15.25 16C15.25 16.9661 16.0339 17.75 17 17.75C17.9661 17.75 18.75 16.9661 18.75 16C18.75 15.0339 17.9661 14.25 17 14.25Z" fill="#F8FAFC" stroke="#F8FAFC"/>
<path d="M23 30.25H17C14.3424 30.25 12.5649 29.6803 11.4423 28.5577C10.3197 27.4351 9.75 25.6576 9.75 23V17C9.75 14.3424 10.3197 12.5649 11.4423 11.4423C12.5649 10.3197 14.3424 9.75 17 9.75H21C21.1339 9.75 21.25 9.86614 21.25 10C21.25 10.1339 21.1339 10.25 21 10.25H17C14.6597 10.25 12.9243 10.6611 11.7927 11.7927C10.6611 12.9243 10.25 14.6597 10.25 17V23C10.25 25.3403 10.6611 27.0757 11.7927 28.2073C12.9243 29.3389 14.6597 29.75 17 29.75H23C25.3403 29.75 27.0757 29.3389 28.2073 28.2073C29.3389 27.0757 29.75 25.3403 29.75 23V18C29.75 17.8661 29.8661 17.75 30 17.75C30.1339 17.75 30.25 17.8661 30.25 18V23C30.25 25.6576 29.6803 27.4351 28.5577 28.5577C27.4351 29.6803 25.6576 30.25 23 30.25Z" fill="#F8FAFC" stroke="#F8FAFC"/>
<path d="M29.25 13.25H23.75C23.6161 13.25 23.5 13.1339 23.5 13C23.5 12.8661 23.6161 12.75 23.75 12.75H29.25C29.3839 12.75 29.5 12.8661 29.5 13C29.5 13.1339 29.3839 13.25 29.25 13.25Z" fill="#F8FAFC" stroke="#F8FAFC"/>
<path d="M26.5 16.5C26.09 16.5 25.75 16.16 25.75 15.75V10.25C25.75 9.84 26.09 9.5 26.5 9.5C26.91 9.5 27.25 9.84 27.25 10.25V15.75C27.25 16.16 26.91 16.5 26.5 16.5Z" fill="#F8FAFC"/>
<path d="M10.6693 27.7005C10.4293 27.7005 10.1893 27.5805 10.0493 27.3705C9.81932 27.0305 9.90932 26.5605 10.2493 26.3305L15.1793 23.0205C16.2593 22.3005 17.7493 22.3805 18.7293 23.2105L19.0593 23.5005C19.5593 23.9305 20.4093 23.9305 20.8993 23.5005L25.0593 19.9305C26.1293 19.0205 27.7893 19.0205 28.8593 19.9305L30.4893 21.3305C30.7993 21.6005 30.8393 22.0705 30.5693 22.3905C30.2993 22.7005 29.8293 22.7405 29.5093 22.4705L27.8793 21.0705C27.3793 20.6405 26.5293 20.6405 26.0393 21.0705L21.8793 24.6405C20.8193 25.5505 19.1493 25.5505 18.0793 24.6405L17.7493 24.3505C17.2893 23.9605 16.5293 23.9205 16.0193 24.2705L11.0993 27.5805C10.9593 27.6605 10.8093 27.7005 10.6693 27.7005Z" fill="#F8FAFC"/>
</svg>
