<svg width="32" height="32" viewBox="0 0 32 32" fill="none" xmlns="http://www.w3.org/2000/svg">
<path d="M21.4296 20.2554C21.3146 20.1004 21.1896 19.9504 21.0646 19.8004C20.6141 19.1706 20.0028 18.6733 19.2946 18.3604H19.2896C19.3072 19.0031 19.4115 19.6405 19.5996 20.2554C19.7915 20.8244 19.7827 21.442 19.5746 22.0054C19.3996 22.4753 19.1996 22.9704 18.9896 23.4904C18.9896 23.4917 18.9891 23.4929 18.9881 23.4939C18.9872 23.4948 18.9859 23.4954 18.9846 23.4954C17.9096 26.1104 15.3396 31.3754 15.3396 31.3754C15.4146 31.3754 15.9146 31.3404 16.0946 31.3304C21.2946 30.9304 26.8046 29.2954 26.8046 27.3454C26.7996 24.8254 24.2746 21.8953 21.4296 20.2554ZM9.91461 21.7554C9.79093 21.9066 9.67894 22.0671 9.57961 22.2354C7.41461 23.3354 5.46461 25.4004 4.80461 26.8704C4.41961 27.7254 4.38961 28.7204 5.14461 29.2804C5.92461 29.8554 7.51961 30.7654 10.3846 31.1904C10.6246 31.2254 10.8746 31.2554 11.1346 31.2854C10.4496 27.5554 10.6796 24.9804 11.4346 23.4954V23.4904C11.5499 23.2571 11.6907 23.0374 11.8546 22.8354C12.3396 22.2454 12.4981 20.0519 12.3731 19.6269C11.4507 20.208 10.6218 20.9257 9.91461 21.7554Z" fill="#1C9699"/>
<path d="M22.8854 12.8048C23.0621 11.4411 22.9379 10.0553 22.5214 8.74481C21.8559 6.67231 20.5854 3.29131 16.2054 2.54131C13.3124 2.04581 9.61537 2.79131 8.43787 5.24981C7.83237 6.51381 7.43787 8.11431 7.87537 8.79981C7.67037 10.0948 8.00037 11.1898 8.00537 12.3998C8.01037 15.1398 8.56537 17.2298 9.64537 18.4248C10.3685 19.1594 11.3397 19.5976 12.3689 19.6538C12.4939 20.0788 12.3404 22.2448 11.8554 22.8348C11.6915 23.0369 11.5506 23.2566 11.4354 23.4898V23.4948C11.0954 25.7248 17.5854 25.6048 18.9854 23.4948C18.9867 23.4948 18.988 23.4943 18.9889 23.4933C18.9898 23.4924 18.9904 23.4911 18.9904 23.4898C19.2004 22.9698 19.4004 22.4748 19.5754 22.0048C19.7834 21.4415 19.7923 20.8239 19.6004 20.2548C19.4122 19.64 19.3079 19.0025 19.2904 18.3598C19.2729 17.8798 19.2795 17.3992 19.3104 16.9198V16.9148C19.6842 16.4698 19.9694 15.9572 20.1504 15.4048C20.3391 15.5738 20.5653 15.6955 20.8104 15.7598C21.8204 15.9798 22.6654 15.0298 22.8904 14.0198C22.9813 13.6197 22.9796 13.2041 22.8854 12.8048Z" fill="#FFBF94"/>
<path d="M23.5441 5.75024C24.5441 7.89524 23.6041 8.98524 22.9541 8.97524C23.4691 10.0702 23.5541 11.7502 22.8841 12.8052C22.834 12.5208 22.7025 12.2569 22.5055 12.0457C22.3085 11.8344 22.0544 11.6849 21.7741 11.6152C21.5314 11.5766 21.2833 11.5901 21.0462 11.6548C20.8091 11.7194 20.5885 11.8338 20.3991 11.9902C20.21 12.1504 20.0494 12.3414 19.9241 12.5552C17.5791 12.6452 18.6041 8.48524 18.6041 8.48524C15.9791 8.22024 16.3341 6.75524 16.3341 5.75524C14.6941 6.77024 12.7091 6.57024 12.8341 5.46524C10.9541 7.23024 9.29906 7.04524 9.01406 6.29024H9.00906C8.36509 6.97939 7.96618 7.86156 7.87406 8.80024C5.39906 7.80024 6.20906 5.50024 7.43906 4.89524C7.43906 4.89524 6.35906 4.39524 7.37406 3.34024C8.39406 2.27524 10.4291 2.26024 10.4291 2.26024C10.4291 2.26024 9.89906 2.19524 10.2341 1.59024C10.5491 1.03024 12.3191 0.795243 14.6991 0.810243C16.5641 0.820243 18.9191 1.89524 19.0691 1.96024C19.0191 1.89024 18.5541 1.24024 18.9641 0.950243C19.6491 0.465243 19.9241 1.95024 19.9241 1.95024C19.9241 1.95024 21.2991 1.47024 21.3691 2.26024C21.4391 3.01024 20.6591 2.77524 20.5741 2.75024C21.8546 3.41342 22.8938 4.46308 23.5441 5.75024Z" fill="#934747"/>
<path d="M18.9846 23.4954C17.9096 26.1104 15.5936 31.3654 15.5936 31.3654C15.4936 31.3704 14.9046 31.3954 14.8396 31.3954C13.6035 31.449 12.3652 31.4123 11.1346 31.2854C10.4496 27.5554 10.6796 24.9804 11.4346 23.4954C11.0946 25.7254 17.5846 25.6054 18.9846 23.4954Z" fill="#EDEAE8"/>
<path d="M11.4345 23.4954C10.6795 24.9804 10.4495 27.5554 11.1345 31.2854C10.8745 31.2554 10.6245 31.2254 10.3845 31.1904C9.35946 29.3404 8.75946 25.4504 8.93446 23.9404C9.01679 23.3303 9.2374 22.7471 9.57946 22.2354C9.6788 22.0671 9.79079 21.9066 9.91446 21.7554C10.6217 20.9257 11.4506 20.208 12.373 19.6269C12.498 20.0519 12.3395 22.2454 11.8545 22.8354C11.6906 23.0374 11.5497 23.2571 11.4345 23.4904V23.4954ZM22.2345 22.1554C22.0295 23.6504 19.4645 27.6904 16.0945 31.3304C15.8825 31.3544 15.4145 31.3754 15.3395 31.3754C15.3395 31.3754 17.9095 26.1104 18.9845 23.4954C18.9858 23.4954 18.9871 23.4948 18.988 23.4939C18.9889 23.4929 18.9895 23.4917 18.9895 23.4904C19.1995 22.9704 19.3995 22.4753 19.5745 22.0054C19.7825 21.442 19.7914 20.8244 19.5995 20.2554C19.4113 19.6405 19.307 19.0031 19.2895 18.3604H19.2945C20.0027 18.6733 20.6139 19.1706 21.0645 19.8004C21.1895 19.9504 21.3145 20.1004 21.4295 20.2554C21.9395 20.9454 22.3045 21.6604 22.2345 22.1554Z" fill="#32B7B3"/>
<path d="M17.8823 18.1358C18.0323 18.0358 18.3648 17.7953 18.4698 17.7153C18.7811 17.4836 19.0632 17.215 19.3098 16.9153C19.2789 17.3963 19.2722 17.8786 19.2898 18.3603C19.3073 19.003 19.4116 19.6404 19.5998 20.2553C19.7917 20.8243 19.7828 21.4419 19.5748 22.0053C19.3998 22.4753 19.1998 22.9703 18.9898 23.4903C18.9898 23.4916 18.9892 23.4929 18.9883 23.4938C18.9874 23.4948 18.9861 23.4953 18.9848 23.4953C17.5848 25.6053 11.0948 25.7253 11.4348 23.4953V23.4903C11.55 23.2571 11.6909 23.0374 11.8548 22.8353C12.3398 22.2453 12.4933 20.0793 12.3683 19.6543C12.6962 19.6724 13.0248 19.6724 13.3528 19.6543C14.0236 19.6267 14.6889 19.52 15.3348 19.3363C16.2393 19.0662 17.0981 18.6615 17.8823 18.1358Z" fill="#FFA87D"/>
<path d="M12.3515 16.2342C12.2595 16.2342 12.167 16.2297 12.0725 16.2207C11.8471 16.2187 11.6246 16.17 11.4189 16.0778C11.2133 15.9855 11.0289 15.8517 10.8775 15.6847C10.859 15.6576 10.846 15.6271 10.8393 15.595C10.8326 15.5628 10.8322 15.5297 10.8383 15.4974C10.8444 15.4651 10.8568 15.4344 10.8747 15.4069C10.8927 15.3794 10.9159 15.3557 10.943 15.3372C10.9978 15.2998 11.0652 15.2857 11.1303 15.298C11.1626 15.3041 11.1934 15.3165 11.2209 15.3344C11.2483 15.3524 11.272 15.3756 11.2905 15.4027C11.5168 15.6094 11.8125 15.7236 12.119 15.7227C12.3472 15.7584 12.5802 15.747 12.8038 15.6892C13.0274 15.6315 13.2368 15.5285 13.419 15.3867C13.4662 15.3412 13.5293 15.316 13.5949 15.3166C13.6604 15.3171 13.7231 15.3434 13.7695 15.3898C13.8158 15.4361 13.8421 15.4988 13.8427 15.5644C13.8433 15.6299 13.8181 15.6931 13.7725 15.7402C13.3808 16.0828 12.8713 16.2599 12.3515 16.2342ZM11.946 14.3502C11.6537 14.3515 11.3725 14.2376 11.1635 14.0332C11.0696 13.9436 11.0055 13.8273 10.98 13.7C10.9545 13.5727 10.9688 13.4406 11.021 13.3217C11.0335 13.2904 11.0522 13.2619 11.0759 13.238C11.0997 13.214 11.128 13.1951 11.1593 13.1824C11.1905 13.1698 11.224 13.1635 11.2577 13.1641C11.2914 13.1647 11.3247 13.1721 11.3554 13.1859C11.3862 13.1996 11.4139 13.2195 11.4368 13.2442C11.4597 13.269 11.4774 13.2981 11.4887 13.3299C11.5001 13.3616 11.5049 13.3953 11.5029 13.429C11.5009 13.4626 11.4921 13.4956 11.477 13.5257C11.467 13.5487 11.443 13.6022 11.5245 13.6872C11.6078 13.7633 11.7103 13.815 11.821 13.8369C11.9316 13.8587 12.0461 13.8499 12.152 13.8112C12.2137 13.7868 12.2825 13.7878 12.3435 13.8141C12.4044 13.8404 12.4523 13.8898 12.4768 13.9515C12.5012 14.0131 12.5002 14.082 12.4739 14.1429C12.4476 14.2038 12.3982 14.2518 12.3365 14.2762C12.2122 14.3252 12.0797 14.3503 11.946 14.3502Z" fill="#F77261"/>
<path d="M8.15045 9.68573C8.10516 9.68602 8.06067 9.67373 8.02195 9.65023C7.99378 9.63336 7.96921 9.6111 7.94964 9.58473C7.93007 9.55836 7.91588 9.52839 7.9079 9.49654C7.89991 9.46469 7.89828 9.43158 7.90309 9.39909C7.90791 9.36661 7.91907 9.33539 7.93595 9.30723C8.11808 9.0573 8.39094 8.88873 8.69595 8.83773C9.2716 8.69751 9.87911 8.78379 10.393 9.07873C10.4492 9.11393 10.4891 9.17004 10.504 9.23469C10.5188 9.29934 10.5074 9.36725 10.4722 9.42348C10.437 9.4797 10.3809 9.51964 10.3162 9.5345C10.2516 9.54936 10.1837 9.53793 10.1275 9.50273C9.72732 9.28009 9.25805 9.21619 8.81295 9.32373C8.63889 9.34711 8.47911 9.43251 8.36295 9.56423C8.34092 9.601 8.3098 9.63149 8.27259 9.65276C8.23538 9.67404 8.19332 9.68539 8.15045 9.68573ZM15.9555 9.58073C15.915 9.58068 15.8752 9.57084 15.8394 9.55203C15.8036 9.53322 15.7729 9.506 15.75 9.47273C15.5677 9.35015 15.3545 9.28183 15.135 9.27573C14.6371 9.17934 14.1216 9.24269 13.662 9.45673C13.6369 9.47794 13.6079 9.494 13.5766 9.50399C13.5453 9.51399 13.5123 9.51772 13.4796 9.51498C13.4469 9.51224 13.415 9.50308 13.3858 9.48803C13.3566 9.47297 13.3307 9.45231 13.3095 9.42723C13.2882 9.40214 13.2722 9.37313 13.2622 9.34184C13.2522 9.31055 13.2485 9.2776 13.2512 9.24487C13.2539 9.21213 13.2631 9.18026 13.2782 9.15107C13.2932 9.12188 13.3139 9.09594 13.339 9.07473C13.719 8.75323 14.5715 8.69773 15.2 8.78023C15.5599 8.79232 15.9025 8.93794 16.161 9.18873C16.18 9.21581 16.1934 9.24639 16.2005 9.27871C16.2076 9.31103 16.2082 9.34444 16.2023 9.37699C16.1964 9.40955 16.1841 9.44061 16.1661 9.46837C16.1481 9.49614 16.1248 9.52005 16.0975 9.53873C16.0556 9.56707 16.006 9.58174 15.9555 9.58073Z" fill="#934747"/>
<path d="M20.8343 13.8702C20.8162 13.87 20.7981 13.8682 20.7803 13.8647C20.7481 13.8576 20.7175 13.8442 20.6905 13.8252C20.6635 13.8063 20.6404 13.7822 20.6228 13.7543C20.6051 13.7264 20.5931 13.6953 20.5876 13.6627C20.582 13.6302 20.5829 13.5968 20.5903 13.5647C20.6598 13.3141 20.8158 13.0963 21.0306 12.9499C21.2455 12.8035 21.5052 12.7378 21.7638 12.7647C21.7964 12.7686 21.8279 12.7789 21.8565 12.7949C21.8852 12.811 21.9103 12.8326 21.9306 12.8584C21.9509 12.8842 21.9659 12.9138 21.9748 12.9454C21.9837 12.977 21.9862 13.0101 21.9823 13.0427C21.979 13.0755 21.9691 13.1073 21.9532 13.1362C21.9373 13.1651 21.9157 13.1905 21.8897 13.2109C21.8638 13.2312 21.834 13.2461 21.8021 13.2547C21.7702 13.2632 21.737 13.2653 21.7043 13.2607C21.5692 13.2502 21.4344 13.2849 21.3211 13.3592C21.2078 13.4336 21.1224 13.5435 21.0783 13.6717C21.0665 13.7277 21.0358 13.778 20.9914 13.8141C20.947 13.8502 20.8915 13.87 20.8343 13.8702Z" fill="#F77261"/>
<path d="M15.8496 11.4503V11.7553C15.8569 11.8316 15.8482 11.9086 15.824 11.9813C15.7998 12.054 15.7607 12.1209 15.7091 12.1776C15.6576 12.2343 15.5947 12.2796 15.5246 12.3106C15.4546 12.3416 15.3788 12.3577 15.3021 12.3577C15.2255 12.3577 15.1497 12.3416 15.0796 12.3106C15.0095 12.2796 14.9467 12.2343 14.8951 12.1776C14.8436 12.1209 14.8044 12.054 14.7802 11.9813C14.756 11.9086 14.7473 11.8316 14.7546 11.7553V11.4503C14.7473 11.374 14.756 11.297 14.7802 11.2243C14.8044 11.1516 14.8436 11.0847 14.8951 11.028C14.9467 10.9713 15.0095 10.9259 15.0796 10.8949C15.1497 10.8639 15.2255 10.8479 15.3021 10.8479C15.3788 10.8479 15.4546 10.8639 15.5246 10.8949C15.5947 10.9259 15.6576 10.9713 15.7091 11.028C15.7607 11.0847 15.7998 11.1516 15.824 11.2243C15.8482 11.297 15.8569 11.374 15.8496 11.4503ZM10.2596 11.4553V11.7603C10.2669 11.8366 10.2582 11.9136 10.234 11.9863C10.2098 12.059 10.1707 12.1259 10.1191 12.1826C10.0676 12.2393 10.0047 12.2846 9.93464 12.3156C9.86455 12.3466 9.78875 12.3627 9.71211 12.3627C9.63547 12.3627 9.55967 12.3466 9.48958 12.3156C9.41949 12.2846 9.35665 12.2393 9.3051 12.1826C9.25355 12.1259 9.21443 12.059 9.19023 11.9863C9.16604 11.9136 9.15731 11.8366 9.16461 11.7603V11.4553C9.15731 11.379 9.16604 11.302 9.19023 11.2293C9.21443 11.1566 9.25355 11.0897 9.3051 11.033C9.35665 10.9763 9.41949 10.9309 9.48958 10.8999C9.55967 10.8689 9.63547 10.8529 9.71211 10.8529C9.78875 10.8529 9.86455 10.8689 9.93464 10.8999C10.0047 10.9309 10.0676 10.9763 10.1191 11.033C10.1707 11.0897 10.2098 11.1566 10.234 11.2293C10.2582 11.302 10.2669 11.379 10.2596 11.4553Z" fill="#B27757"/>
<path d="M8.40237 11.4778C8.33464 11.4754 8.27053 11.4466 8.22379 11.3976C8.17705 11.3485 8.15141 11.283 8.15237 11.2153C8.15237 10.9888 8.34687 10.7653 8.68687 10.6023C8.95691 10.4609 9.26039 10.3957 9.56468 10.4139C9.86896 10.432 10.1625 10.5328 10.4139 10.7053C10.4651 10.747 10.4978 10.8073 10.5047 10.873C10.5116 10.9387 10.4922 11.0045 10.4508 11.0559C10.4094 11.1074 10.3493 11.1404 10.2836 11.1477C10.2179 11.1549 10.1521 11.1359 10.1004 11.0948C9.96744 11.0054 9.81645 10.9464 9.65814 10.9219C9.49983 10.8975 9.33808 10.9082 9.18437 10.9533C8.9788 10.9871 8.79028 11.0883 8.64837 11.2408C8.64832 11.2727 8.64186 11.3042 8.62937 11.3335C8.61687 11.3628 8.59861 11.3894 8.57565 11.4115C8.5527 11.4336 8.52552 11.4509 8.49575 11.4623C8.46598 11.4736 8.43422 11.4789 8.40237 11.4778ZM13.9994 11.4728C13.9317 11.4703 13.8676 11.4415 13.8209 11.3924C13.7742 11.3434 13.7485 11.278 13.7494 11.2103C13.7494 10.9833 13.9444 10.7603 14.2844 10.5963C14.5532 10.4539 14.8561 10.3882 15.1597 10.4066C15.4634 10.4249 15.7561 10.5265 16.0059 10.7003C16.0553 10.7425 16.0863 10.8022 16.0924 10.8669C16.0985 10.9315 16.0792 10.996 16.0386 11.0467C15.998 11.0974 15.9393 11.1303 15.8748 11.1384C15.8104 11.1466 15.7453 11.1293 15.6934 11.0903C15.5607 11.0008 15.4099 10.9416 15.2517 10.9171C15.0936 10.8925 14.9319 10.9032 14.7784 10.9483C14.5738 10.9825 14.3863 11.0836 14.2454 11.2358C14.2453 11.2677 14.2389 11.2992 14.2264 11.3285C14.2139 11.3578 14.1956 11.3844 14.1726 11.4065C14.1497 11.4286 14.1225 11.4459 14.0928 11.4573C14.063 11.4686 14.0312 11.4739 13.9994 11.4728Z" fill="#7F3C3C"/>
</svg>
