<svg width="25" height="25" viewBox="0 0 25 25" fill="none" xmlns="http://www.w3.org/2000/svg">
<path d="M19.5577 13.2111C19.5465 11.1627 20.4726 9.6167 22.3472 8.4781C21.2984 6.97672 19.7139 6.15067 17.6217 5.98881C15.6411 5.83253 13.4764 7.14416 12.6841 7.14416C11.8472 7.14416 9.928 6.04463 8.42163 6.04463C5.30845 6.09486 2 8.52834 2 13.479C2 14.9413 2.2678 16.452 2.8034 18.0111C3.51753 20.0595 6.09511 25.0827 8.78427 24.999C10.1902 24.9655 11.1833 23.9999 13.0133 23.9999C14.7875 23.9999 15.708 24.999 17.2758 24.999C19.9872 24.9599 22.3193 20.3943 23 18.3404C19.3624 16.6269 19.5577 13.3172 19.5577 13.2111ZM16.3998 4.04649C17.923 2.23813 17.7835 0.591625 17.7388 0C16.3943 0.0781392 14.8377 0.915345 13.9506 1.9479C12.9742 3.05301 12.3996 4.42045 12.5223 5.96091C13.9785 6.07253 15.3063 5.32463 16.3998 4.04649Z" fill="black"/>
</svg>
