<svg width="20" height="21" viewBox="0 0 20 21" fill="none" xmlns="http://www.w3.org/2000/svg">
<path d="M8.33301 2.42139H11.667C13.8719 2.42143 15.3265 2.89435 16.2393 3.80713C17.152 4.71991 17.625 6.17447 17.625 8.37939V13.3794C17.625 15.5845 17.1521 17.0398 16.2393 17.9526C15.3265 18.8653 13.8718 19.3383 11.667 19.3384H8.33301C6.12822 19.3383 4.67354 18.8653 3.76074 17.9526C2.84791 17.0398 2.375 15.5845 2.375 13.3794V8.37939C2.37505 6.17447 2.84796 4.71991 3.76074 3.80713C4.67353 2.89435 6.12809 2.42143 8.33301 2.42139ZM8.33301 2.67139C6.37706 2.67142 4.90177 3.01376 3.93457 3.98096C2.96737 4.94815 2.62504 6.42345 2.625 8.37939V13.3794C2.625 15.3353 2.96757 16.8106 3.93457 17.7778C4.90177 18.745 6.37706 19.0883 8.33301 19.0884H11.667C13.6229 19.0883 15.0982 18.745 16.0654 17.7778C17.0324 16.8106 17.375 15.3353 17.375 13.3794V8.37939C17.375 6.42345 17.0326 4.94815 16.0654 3.98096C15.0982 3.01376 13.6229 2.67142 11.667 2.67139H8.33301Z" fill="#525F72" stroke="#525F72"/>
<path d="M7.5 5.82178H12.5C13.2572 5.82178 13.875 6.43959 13.875 7.19678V8.02979C13.875 8.78698 13.2572 9.40479 12.5 9.40479H7.5C6.74281 9.40479 6.125 8.78698 6.125 8.02979V7.19678C6.125 6.43959 6.74281 5.82178 7.5 5.82178ZM7.5 6.07178C6.88219 6.07178 6.375 6.57897 6.375 7.19678V8.02979C6.375 8.64759 6.88219 9.15479 7.5 9.15479H12.5C13.1178 9.15479 13.625 8.64759 13.625 8.02979V7.19678C13.625 6.57897 13.1178 6.07178 12.5 6.07178H7.5Z" fill="#525F72" stroke="#525F72"/>
<path d="M6.74023 12.1519C6.83304 12.1316 6.95359 12.165 7.03027 12.2417C7.06671 12.2781 7.08812 12.3128 7.09961 12.3423V12.3433L7.10547 12.356C7.12572 12.4047 7.13378 12.4476 7.13379 12.48C7.13379 12.5645 7.1004 12.6481 7.03027 12.7183C6.9692 12.7793 6.88925 12.8129 6.79199 12.813C6.75951 12.813 6.71585 12.806 6.66699 12.7856C6.61923 12.7657 6.58529 12.741 6.5625 12.7183C6.50138 12.6571 6.4668 12.5773 6.4668 12.48C6.46681 12.4216 6.47572 12.3816 6.48633 12.356H6.4873L6.49219 12.3433C6.50473 12.3106 6.52008 12.2841 6.5625 12.2417C6.57025 12.2339 6.57462 12.2284 6.5791 12.2241L6.60449 12.2124L6.63574 12.186L6.66699 12.1763L6.69922 12.1606L6.69824 12.1597C6.69897 12.1594 6.70015 12.16 6.70117 12.1597C6.70654 12.158 6.71227 12.1573 6.71582 12.1567L6.72852 12.1548L6.74023 12.1519Z" fill="#525F72" stroke="#525F72"/>
<path d="M10.0703 12.1523C10.1245 12.1409 10.188 12.1448 10.2568 12.1738L10.2588 12.1748C10.302 12.1928 10.3338 12.2146 10.3564 12.2354C10.4115 12.2977 10.4263 12.3232 10.4336 12.3418V12.3428L10.4395 12.3555C10.4597 12.4041 10.4677 12.4471 10.4678 12.4795C10.4678 12.564 10.4343 12.6476 10.3643 12.7178C10.3013 12.7807 10.2201 12.8135 10.1338 12.8135C10.0367 12.8134 9.95751 12.7787 9.89648 12.7178C9.83537 12.6567 9.80078 12.5768 9.80078 12.4795C9.80082 12.4211 9.80968 12.381 9.82031 12.3555L9.35938 12.1631L9.82129 12.3555L9.82617 12.3428C9.83872 12.3102 9.85407 12.2846 9.89648 12.2422C9.90452 12.2342 9.9085 12.2281 9.91309 12.2236L9.93848 12.2119L9.96973 12.1855L10.001 12.1758L10.0312 12.1602C10.0321 12.1599 10.0337 12.1606 10.0352 12.1602C10.0405 12.1585 10.0463 12.1568 10.0498 12.1562L10.0605 12.1543L10.0703 12.1523Z" fill="#525F72" stroke="#525F72"/>
<path d="M13.2285 12.2417C13.3417 12.1288 13.5833 12.1287 13.6963 12.2417C13.7644 12.3099 13.7998 12.4012 13.7998 12.48C13.7997 12.5643 13.7661 12.6472 13.6963 12.7173C13.639 12.7745 13.5571 12.8129 13.458 12.813C13.4255 12.813 13.3819 12.805 13.333 12.7847C13.2852 12.7647 13.2513 12.74 13.2285 12.7173C13.1948 12.6836 13.1708 12.6484 13.1523 12.604C13.1417 12.5784 13.1328 12.5384 13.1328 12.48C13.1328 12.4213 13.1417 12.3806 13.1523 12.355H13.1533L13.1582 12.3423C13.1707 12.3098 13.1862 12.284 13.2285 12.2417Z" fill="#525F72" stroke="#525F72"/>
<path d="M6.72363 15.4883C6.84665 15.466 6.96139 15.5064 7.03027 15.5752C7.04353 15.5885 7.05462 15.6035 7.07227 15.625C7.07566 15.6318 7.07962 15.6387 7.08301 15.6455C7.08997 15.6594 7.09655 15.6736 7.10352 15.6875C7.11166 15.7119 7.11979 15.7363 7.12793 15.7607C7.12948 15.7717 7.13101 15.78 7.13184 15.7871C7.13346 15.8012 7.13379 15.8087 7.13379 15.8135C7.13375 15.898 7.10045 15.9816 7.03027 16.0518C6.96738 16.1145 6.88696 16.1465 6.80078 16.1465C6.70351 16.1465 6.6236 16.1128 6.5625 16.0518C6.49232 15.9816 6.45903 15.898 6.45898 15.8135C6.45898 15.7346 6.49424 15.6435 6.5625 15.5752C6.56369 15.574 6.56631 15.571 6.57031 15.5674C6.57413 15.564 6.57882 15.561 6.58301 15.5576C6.58712 15.5543 6.5905 15.5514 6.59277 15.5498L6.59082 15.5508L6.62012 15.5332L6.63672 15.5186L6.66699 15.5098L6.69922 15.4941C6.69832 15.4946 6.69767 15.4949 6.69727 15.4951C6.6981 15.4948 6.69988 15.4939 6.70215 15.4932C6.70721 15.4916 6.71234 15.4908 6.71582 15.4902L6.72363 15.4883Z" fill="#525F72" stroke="#525F72"/>
<path d="M10.2012 15.4883L10.2109 15.4902C10.2144 15.4908 10.2195 15.4916 10.2246 15.4932C10.2267 15.4938 10.2286 15.4948 10.2295 15.4951L10.2275 15.4941L10.2598 15.5098L10.2891 15.5186L10.3066 15.5332L10.3262 15.5449C10.3277 15.5462 10.3299 15.548 10.332 15.5498C10.3406 15.5571 10.3463 15.5621 10.3604 15.5742C10.3633 15.5767 10.3667 15.5791 10.3701 15.582C10.4257 15.6411 10.46 15.725 10.46 15.8135C10.4599 15.9108 10.4253 15.9907 10.3643 16.0518C10.3014 16.1145 10.2209 16.1465 10.1348 16.1465C10.0375 16.1465 9.95758 16.1128 9.89648 16.0518C9.82631 15.9816 9.79301 15.898 9.79297 15.8135C9.79297 15.7346 9.82822 15.6435 9.89648 15.5752C9.965 15.5067 10.0875 15.467 10.2012 15.4883Z" fill="#525F72" stroke="#525F72"/>
<path d="M13.3291 15.5098C13.4656 15.4545 13.6188 15.4952 13.6895 15.5684L13.6963 15.5752C13.7554 15.6345 13.791 15.722 13.791 15.8135C13.7909 15.9104 13.7571 15.9898 13.6963 16.0508C13.6735 16.0736 13.6387 16.0982 13.5908 16.1182C13.5447 16.1374 13.5013 16.1465 13.458 16.1465C13.3717 16.1465 13.2915 16.1137 13.2285 16.0508C13.1675 15.9897 13.1329 15.9106 13.1328 15.8135C13.1328 15.7218 13.1692 15.6345 13.2285 15.5752C13.2506 15.5531 13.2834 15.5294 13.3291 15.5098Z" fill="#525F72" stroke="#525F72"/>
</svg>
