<svg width="20" height="21" viewBox="0 0 20 21" fill="none" xmlns="http://www.w3.org/2000/svg">
<path d="M6.66602 2.42139C6.69616 2.42139 6.72729 2.43383 6.75293 2.45947C6.77857 2.48512 6.79102 2.51624 6.79102 2.54639V5.04639C6.79102 5.07653 6.77857 5.10766 6.75293 5.1333C6.72729 5.15894 6.69616 5.17139 6.66602 5.17139C6.63587 5.17139 6.60475 5.15894 6.5791 5.1333C6.55346 5.10766 6.54102 5.07653 6.54102 5.04639V2.54639C6.54102 2.51624 6.55346 2.48512 6.5791 2.45947C6.60475 2.43383 6.63587 2.42139 6.66602 2.42139Z" fill="#525F72" stroke="#525F72"/>
<path d="M13.334 2.42139C13.3641 2.42139 13.3953 2.43383 13.4209 2.45947C13.4465 2.48512 13.459 2.51624 13.459 2.54639V5.04639C13.459 5.07653 13.4465 5.10766 13.4209 5.1333C13.3953 5.15894 13.3641 5.17139 13.334 5.17139C13.3038 5.17139 13.2727 5.15894 13.2471 5.1333C13.2214 5.10766 13.209 5.07653 13.209 5.04639V2.54639C13.209 2.51624 13.2214 2.48512 13.2471 2.45947C13.2727 2.43383 13.3038 2.42139 13.334 2.42139Z" fill="#525F72" stroke="#525F72"/>
<path d="M6.85156 11.8862C6.96316 11.7829 7.19595 11.7776 7.32031 11.8921C7.38274 11.9627 7.41699 12.0536 7.41699 12.1304C7.41693 12.1321 7.41577 12.1393 7.41406 12.1548C7.41221 12.1715 7.40982 12.1902 7.40625 12.2153C7.40559 12.217 7.40408 12.2197 7.40234 12.2231L7.38672 12.2554L7.37598 12.2886C7.37533 12.2905 7.37152 12.297 7.36426 12.3091C7.34765 12.3298 7.33097 12.35 7.31445 12.3706C7.24472 12.4299 7.15775 12.4634 7.08301 12.4634C7.00611 12.4633 6.91625 12.4283 6.8457 12.3657C6.78268 12.2944 6.75008 12.2121 6.75 12.1304C6.75 12.0979 6.75796 12.0542 6.77832 12.0054C6.7955 11.9642 6.81915 11.9247 6.85156 11.8862Z" fill="#525F72" stroke="#525F72"/>
<path d="M9.99935 12.9633C9.89102 12.9633 9.78268 12.9383 9.68268 12.8967C9.57435 12.855 9.49102 12.7966 9.40768 12.7216C9.25768 12.5633 9.16602 12.355 9.16602 12.13C9.16602 12.0216 9.19102 11.9133 9.23268 11.8133C9.27435 11.7133 9.33268 11.6217 9.40768 11.5383C9.49102 11.4633 9.57435 11.405 9.68268 11.3633C9.99102 11.2383 10.3577 11.305 10.591 11.5383C10.741 11.6967 10.8327 11.9133 10.8327 12.13C10.8327 12.18 10.8244 12.2383 10.816 12.2967C10.8077 12.3467 10.791 12.3967 10.766 12.4467C10.7493 12.4967 10.7243 12.5466 10.691 12.5966C10.666 12.6383 10.6243 12.68 10.591 12.7216C10.4327 12.8716 10.216 12.9633 9.99935 12.9633Z" fill="#525F72"/>
<path d="M7.08333 15.88C6.975 15.88 6.86667 15.855 6.76667 15.8134C6.65834 15.7717 6.56667 15.7134 6.49167 15.6384C6.41667 15.5634 6.35833 15.4717 6.31667 15.3634C6.275 15.2634 6.25 15.155 6.25 15.0467C6.25 14.9384 6.275 14.83 6.31667 14.73C6.35833 14.6217 6.41667 14.53 6.49167 14.455C6.56667 14.38 6.65834 14.3217 6.76667 14.28C6.96667 14.1967 7.2 14.1884 7.4 14.28C7.50833 14.3217 7.6 14.38 7.675 14.455C7.75 14.53 7.80833 14.6217 7.85 14.73C7.89166 14.83 7.91667 14.9384 7.91667 15.0467C7.91667 15.155 7.89166 15.2634 7.85 15.3634C7.80833 15.4717 7.75 15.5634 7.675 15.6384C7.6 15.7134 7.50833 15.7717 7.4 15.8134C7.3 15.855 7.19167 15.88 7.08333 15.88Z" fill="#525F72"/>
<path d="M17.0827 9.08008H2.91602C2.57435 9.08008 2.29102 8.79674 2.29102 8.45508C2.29102 8.11341 2.57435 7.83008 2.91602 7.83008H17.0827C17.4243 7.83008 17.7077 8.11341 17.7077 8.45508C17.7077 8.79674 17.4243 9.08008 17.0827 9.08008Z" fill="#525F72"/>
<path d="M14.9993 20.6715C14.0243 20.6715 13.0994 20.3215 12.391 19.6799C12.091 19.4299 11.8243 19.1132 11.6077 18.7466C11.241 18.1466 11.041 17.4382 11.041 16.7132C11.041 14.5299 12.816 12.7549 14.9993 12.7549C16.1327 12.7549 17.216 13.2465 17.966 14.0965C18.6077 14.8299 18.9577 15.7549 18.9577 16.7132C18.9577 17.4382 18.7577 18.1466 18.3827 18.7549C17.6827 19.9382 16.3827 20.6715 14.9993 20.6715ZM14.9993 14.0049C13.5077 14.0049 12.291 15.2215 12.291 16.7132C12.291 17.2049 12.4244 17.6882 12.6827 18.1049C12.8244 18.3549 13.0077 18.5632 13.2077 18.7382C13.7077 19.1882 14.3327 19.4215 14.9993 19.4215C15.9577 19.4215 16.8243 18.9299 17.316 18.1132C17.5743 17.6882 17.7077 17.2132 17.7077 16.7132C17.7077 16.0632 17.466 15.4299 17.0327 14.9216C16.516 14.3382 15.7743 14.0049 14.9993 14.0049Z" fill="#525F72"/>
<path d="M14.5241 18.163C14.3658 18.163 14.2074 18.1047 14.0824 17.9797L13.2574 17.1547C13.0158 16.913 13.0158 16.513 13.2574 16.2713C13.4991 16.0297 13.8991 16.0297 14.1408 16.2713L14.5408 16.6714L15.8741 15.438C16.1241 15.2047 16.5241 15.2214 16.7574 15.4714C16.9908 15.7214 16.9741 16.1214 16.7241 16.3547L14.9491 17.9964C14.8241 18.1047 14.6741 18.163 14.5241 18.163Z" fill="#525F72"/>
<path d="M12.8083 19.8381H6.66667C3.625 19.8381 1.875 18.0881 1.875 15.0464V7.96305C1.875 4.92139 3.625 3.17139 6.66667 3.17139H13.3333C16.375 3.17139 18.125 4.92139 18.125 7.96305V14.513C18.125 14.7714 17.9667 15.0047 17.7167 15.0964C17.475 15.1881 17.2 15.1214 17.025 14.9214C16.5083 14.3381 15.7667 14.0047 14.9917 14.0047C13.5 14.0047 12.2833 15.2214 12.2833 16.7131C12.2833 17.2047 12.4167 17.6881 12.675 18.1047C12.8167 18.3547 13 18.563 13.2 18.738C13.4 18.9047 13.475 19.1797 13.3833 19.4297C13.3083 19.6714 13.075 19.8381 12.8083 19.8381ZM6.66667 4.42139C4.28333 4.42139 3.125 5.57972 3.125 7.96305V15.0464C3.125 17.4297 4.28333 18.5881 6.66667 18.5881H11.5167C11.2083 18.0214 11.0417 17.3797 11.0417 16.7131C11.0417 14.5297 12.8167 12.7547 15 12.7547C15.6583 12.7547 16.3083 12.9214 16.875 13.2297V7.96305C16.875 5.57972 15.7167 4.42139 13.3333 4.42139H6.66667Z" fill="#525F72"/>
</svg>
