<svg width="32" height="32" viewBox="0 0 32 32" fill="none" xmlns="http://www.w3.org/2000/svg">
<path d="M27.6887 16.0735V18.8917C27.6887 20.7621 26.1724 22.2777 24.3026 22.2777H14.7632C13.8715 20.2708 13.2798 18.1782 12.9707 16.0735H27.6887Z" fill="#73DA8C"/>
<path d="M14.7644 22.2775H7.6973C5.82686 22.2775 4.31055 20.7619 4.31055 18.8914V16.0732H12.9718C13.2809 18.178 13.8726 20.2706 14.7644 22.2775Z" fill="#29CE69"/>
<path d="M26.5431 16.7189C27.9562 16.7189 29.1018 15.5734 29.1018 14.1602C29.1018 12.7471 27.9562 11.6016 26.5431 11.6016C25.1299 11.6016 23.9844 12.7471 23.9844 14.1602C23.9844 15.5734 25.1299 16.7189 26.5431 16.7189Z" fill="#FFCBBE"/>
<path d="M5.45517 16.7192C6.8683 16.7192 8.01386 15.5736 8.01386 14.1605C8.01386 12.7474 6.8683 11.6018 5.45517 11.6018C4.04205 11.6018 2.89648 12.7474 2.89648 14.1605C2.89648 15.5736 4.04205 16.7192 5.45517 16.7192Z" fill="#FFCBBE"/>
<path d="M23.2022 31.9996H22.794C18.6514 30.4859 16.5757 28.0073 16.4043 25.335H21.637C23.1269 26.5963 24.188 28.3482 24.571 30.3416C24.7365 31.2018 24.0778 31.9996 23.2022 31.9996Z" fill="#F8EA69"/>
<path d="M22.7949 31.9996H8.79738C7.92176 31.9996 7.26245 31.2018 7.42788 30.3416C7.81163 28.3482 8.8727 26.5963 10.3626 25.335H16.4053C17.9904 27.8228 20.1074 30.0989 22.7949 31.9996Z" fill="#F6CA56"/>
<path d="M21.6373 25.3351C21.2928 26.805 20.3882 28.0593 19.161 28.8609C16.9298 27.8338 15.4462 25.8827 15.6661 24.0918H19.6999C20.3978 24.4189 21.0492 24.8369 21.6373 25.3351Z" fill="#73DA8C"/>
<path d="M19.1604 28.8609C18.2513 29.4545 17.1657 29.7997 15.999 29.7997C13.2575 29.7997 10.9608 27.8939 10.3613 25.3351C10.9493 24.8368 11.6008 24.4187 12.2987 24.0918H15.6655C16.5978 25.7781 17.7587 27.3832 19.1604 28.8609Z" fill="#29CE69"/>
<path d="M19.6617 24.0918C19.632 25.4465 18.8665 26.6202 17.7494 27.2294C16.1518 26.4764 15.374 25.3274 15.6658 24.0918H19.6617Z" fill="#FFCBBE"/>
<path d="M17.7489 27.2294C17.2292 27.5127 16.6331 27.6736 15.9989 27.6736C14.0022 27.6736 12.3797 26.0775 12.3359 24.0918H15.6654C16.2737 25.1924 16.9705 26.2417 17.7489 27.2294Z" fill="#FFB39D"/>
<path d="M26.5883 14.1667C26.5883 19.9995 21.8727 24.73 16.047 24.7563C10.1876 18.8309 10.5477 9.26615 14.4316 3.69303C14.9504 3.61557 15.4742 3.57683 15.9988 3.57715C21.847 3.57709 26.5883 8.31846 26.5883 14.1667Z" fill="#FFDDCF"/>
<path d="M16.0481 24.7565H15.9998C10.1509 24.7565 5.41016 20.0157 5.41016 14.1669C5.41016 8.85112 9.32678 4.44968 14.4326 3.69312C11.7934 10.1015 12.0883 18.1202 16.0481 24.7565Z" fill="#FFCBBE"/>
<path d="M7.55238 8.47376C6.74625 9.3327 6.07569 10.5326 5.6005 12.1558C4.95081 12.358 4.28575 12.4218 3.57812 12.4218C3.57812 11.7386 3.6335 11.0684 3.73906 10.4155C3.73906 10.4155 5.19556 8.1807 7.55238 8.47376Z" fill="#5972A5"/>
<path d="M20.0108 7.50458C18.4327 8.60433 15.9763 9.79289 12.7898 10.6331C12.205 9.28114 12.3779 7.6822 13.4492 6.6592C15.6924 6.40739 18.1906 6.62633 20.0108 7.50458Z" fill="#687DAA"/>
<path d="M13.4496 6.65918C13.1193 7.94887 12.8978 9.28037 12.7903 10.6331C11.5928 10.9494 10.2925 11.2169 8.89695 11.4114C8.74832 11.4321 8.61195 11.321 8.6047 11.1712C8.55114 10.0704 8.81157 8.89118 9.09776 8.02674C10.0938 7.34237 11.6938 6.85624 13.4496 6.65918Z" fill="#5972A5"/>
<path d="M28.4207 12.421C27.7376 12.4213 27.0575 12.3308 26.3983 12.1519C25.9231 10.53 25.2645 9.35044 24.457 8.49219C27.1299 8.53337 28.2597 10.4173 28.2597 10.4173C28.3673 11.0798 28.4211 11.7499 28.4207 12.421Z" fill="#687DAA"/>
<path d="M10.8764 17.9751C11.9202 17.9751 12.7665 17.3012 12.7665 16.47C12.7665 15.6387 11.9202 14.9648 10.8764 14.9648C9.83254 14.9648 8.98633 15.6387 8.98633 16.47C8.98633 17.3012 9.83254 17.9751 10.8764 17.9751Z" fill="#FFA1AC"/>
<path d="M21.1225 17.9751C22.1663 17.9751 23.0125 17.3012 23.0125 16.47C23.0125 15.6387 22.1663 14.9648 21.1225 14.9648C20.0786 14.9648 19.2324 15.6387 19.2324 16.47C19.2324 17.3012 20.0786 17.9751 21.1225 17.9751Z" fill="#FFA1AC"/>
<path d="M11.9785 15.4901C11.8542 15.4901 11.735 15.4407 11.6471 15.3528C11.5592 15.2649 11.5098 15.1457 11.5098 15.0213V14.2488C11.5098 13.9898 11.7196 13.78 11.9785 13.78C12.2374 13.78 12.4473 13.9898 12.4473 14.2488V15.0213C12.4473 15.1457 12.3979 15.2649 12.31 15.3528C12.2221 15.4407 12.1028 15.4901 11.9785 15.4901ZM20.0202 15.4901C19.8959 15.4901 19.7767 15.4407 19.6887 15.3528C19.6008 15.2649 19.5515 15.1457 19.5515 15.0213V14.2488C19.5515 13.9898 19.7613 13.78 20.0202 13.78C20.2791 13.78 20.489 13.9898 20.489 14.2488V15.0213C20.489 15.1457 20.4396 15.2649 20.3517 15.3528C20.2638 15.4407 20.1445 15.4901 20.0202 15.4901ZM15.9993 15.95C15.7314 15.9499 15.4666 15.8925 15.2228 15.7814C14.979 15.6704 14.7618 15.5084 14.5859 15.3063C14.5042 15.2126 14.4631 15.0903 14.4716 14.9663C14.4801 14.8423 14.5376 14.7267 14.6313 14.645C14.6777 14.6046 14.7316 14.5736 14.7899 14.554C14.8483 14.5344 14.9099 14.5264 14.9714 14.5307C15.0328 14.5349 15.0928 14.5512 15.1479 14.5786C15.203 14.606 15.2522 14.644 15.2926 14.6904C15.4711 14.8951 15.7287 15.0125 15.9993 15.0125C16.27 15.0125 16.5276 14.8951 16.706 14.6904C16.7465 14.644 16.7957 14.606 16.8508 14.5786C16.9059 14.5512 16.9659 14.535 17.0273 14.5307C17.0887 14.5265 17.1504 14.5344 17.2087 14.5541C17.2671 14.5737 17.321 14.6046 17.3674 14.645C17.4138 14.6855 17.4518 14.7347 17.4792 14.7898C17.5066 14.8449 17.5229 14.9049 17.5271 14.9663C17.5313 15.0277 17.5234 15.0893 17.5038 15.1477C17.4841 15.206 17.4532 15.2599 17.4128 15.3063C17.2368 15.5084 17.0197 15.6704 16.7758 15.7814C16.532 15.8925 16.2672 15.95 15.9993 15.95Z" fill="#495560"/>
<path d="M28.2597 10.4181C25.0371 7.99134 20.1889 7.28246 15.9999 7.24902C15.0927 7.26252 14.1822 7.30115 13.2789 7.37396C12.6231 4.26834 14.2653 1.02727 16.4017 0.00683594C22.3986 0.197398 27.3222 4.63946 28.2597 10.4181Z" fill="#73DA8C"/>
<path d="M16.4005 0.0064375C14.9273 2.18719 13.8727 4.70087 13.2778 7.3735C9.78416 7.65681 6.39747 8.46356 3.73828 10.4151C4.69766 4.509 9.82153 0 15.9987 0C16.1333 0 16.2672 0.0019375 16.4005 0.0064375Z" fill="#29CE69"/>
<path d="M19.9939 5.00295C20.0236 5.17338 19.8828 5.32613 19.7111 5.30551C18.529 5.16363 17.2846 5.08751 15.9993 5.08751C15.282 5.08751 14.5776 5.11132 13.89 5.15707C13.6165 4.05157 14.1494 2.69757 15.0998 2.2307C15.1709 2.22607 15.2422 2.22372 15.3135 2.22363H16.6843C18.3424 2.22357 19.7189 3.42407 19.9939 5.00295Z" fill="#687DAA"/>
<path d="M15.0999 2.23145C14.6286 3.16763 14.2243 4.14632 13.8901 5.15782C13.3547 5.19296 12.8204 5.2425 12.2877 5.30638C12.118 5.3267 11.9747 5.17726 12.0038 5.00888C12.2646 3.49607 13.5373 2.3292 15.0999 2.23145Z" fill="#5972A5"/>
</svg>
