<svg width="24" height="24" viewBox="0 0 24 24" fill="none" xmlns="http://www.w3.org/2000/svg">
<path d="M12 1.75C17.6539 1.75 22.25 6.34614 22.25 12C22.25 17.6539 17.6539 22.25 12 22.25C6.34614 22.25 1.75 17.6539 1.75 12C1.75 6.34614 6.34614 1.75 12 1.75ZM12 2.25C6.62386 2.25 2.25 6.62386 2.25 12C2.25 17.3761 6.62386 21.75 12 21.75C17.3761 21.75 21.75 17.3761 21.75 12C21.75 6.62386 17.3761 2.25 12 2.25Z" fill="#7B8697" stroke="#7B8697"/>
<path d="M11.6396 7.25781C11.7735 7.25781 11.8896 7.37395 11.8896 7.50781V11.6074C11.8896 11.9056 12.0061 12.2152 12.1436 12.457C12.2798 12.6966 12.4854 12.9547 12.7432 13.1064V13.1074L15.8438 14.957L15.8477 14.96C15.9558 15.0231 16.0023 15.1669 15.9307 15.2979C15.8717 15.388 15.7851 15.4276 15.71 15.4277C15.6836 15.4277 15.6634 15.425 15.6484 15.4209C15.6342 15.417 15.6211 15.4105 15.6074 15.4014L15.5967 15.3945L15.5859 15.3887L12.4863 13.5381H12.4854C11.8671 13.1683 11.3896 12.3216 11.3896 11.6074V7.50781C11.3896 7.37395 11.5058 7.25781 11.6396 7.25781Z" fill="#7B8697" stroke="#7B8697"/>
</svg>
