<svg width="20" height="21" viewBox="0 0 20 21" fill="none" xmlns="http://www.w3.org/2000/svg">
<path d="M8.96973 2.84961C9.50783 2.31175 10.4913 2.31164 11.0293 2.84961L12.2959 4.11621C12.4158 4.23607 12.5802 4.31922 12.6963 4.36719C12.8115 4.41476 12.9842 4.47168 13.1494 4.47168H14.9492C15.7564 4.47168 16.4072 5.12249 16.4072 5.92969V7.72949C16.4072 7.89483 16.4651 8.06737 16.5127 8.18262C16.5607 8.29875 16.6428 8.46315 16.7627 8.58301L18.0293 9.84961C18.3037 10.1241 18.458 10.4897 18.458 10.8799C18.458 11.2748 18.3086 11.6359 18.0332 11.9053L16.7627 13.1758C16.6429 13.2955 16.5607 13.4601 16.5127 13.5762C16.4651 13.6913 16.4073 13.864 16.4072 14.0293V15.8301C16.407 16.6371 15.7562 17.2881 14.9492 17.2881H13.1494C12.9841 17.2881 12.8115 17.345 12.6963 17.3926C12.6092 17.4285 12.4947 17.4836 12.3926 17.5596L12.2959 17.6426L11.0254 18.9131C10.756 19.1886 10.3941 19.3379 9.99902 19.3379C9.60403 19.3378 9.24294 19.1885 8.97363 18.9131L7.70312 17.6426L7.60645 17.5596C7.50425 17.4836 7.38984 17.4286 7.30273 17.3926C7.18754 17.345 7.01495 17.2881 6.84961 17.2881H5.0498C4.24279 17.2881 3.59106 16.6371 3.59082 15.8301V14.0293C3.59073 13.864 3.5339 13.6913 3.48633 13.5762C3.45032 13.489 3.39536 13.3746 3.31934 13.2725L3.23633 13.1758L1.96973 11.9092C1.69537 11.6348 1.54107 11.27 1.54102 10.8799C1.54102 10.4848 1.6903 10.1229 1.96582 9.85352L3.23633 8.58301C3.35611 8.46316 3.43838 8.2987 3.48633 8.18262C3.53391 8.06737 3.59082 7.89478 3.59082 7.72949V5.92969C3.59084 5.12249 4.24265 4.47168 5.0498 4.47168H6.84961C7.01489 4.47162 7.18754 4.41476 7.30273 4.36719C7.41886 4.31922 7.58326 4.23608 7.70312 4.11621L8.96973 2.84961ZM10.8525 3.02637C10.3906 2.5645 9.60742 2.56446 9.14551 3.02637L7.87891 4.29297C7.63892 4.53281 7.18295 4.72158 6.84961 4.72168H5.0498C4.38194 4.72168 3.84084 5.26196 3.84082 5.92969V7.72949C3.84082 8.06292 3.65212 8.51975 3.41211 8.75977L2.14551 10.0264C1.921 10.251 1.79102 10.5523 1.79102 10.8799C1.79107 11.2075 1.92092 11.5088 2.14551 11.7334L3.41211 13C3.65203 13.2399 3.84067 13.6959 3.84082 14.0293V15.8301C3.84107 16.4976 4.38208 17.0381 5.0498 17.0381H6.84961C7.18304 17.0382 7.63897 17.2269 7.87891 17.4668L9.14551 18.7334C9.60735 19.1952 10.3906 19.1951 10.8525 18.7334L12.1191 17.4668C12.3591 17.2268 12.816 17.0381 13.1494 17.0381H14.9492C15.6169 17.0381 16.157 16.4976 16.1572 15.8301V14.0293C16.1574 13.696 16.3461 13.24 16.5859 13L17.8525 11.7334C18.0772 11.5088 18.208 11.2075 18.208 10.8799C18.208 10.5522 18.0772 10.251 17.8525 10.0264L16.5859 8.75977C16.3459 8.51975 16.1572 8.06292 16.1572 7.72949V5.92969C16.1572 5.26196 15.6171 4.72168 14.9492 4.72168H13.1494C12.816 4.72168 12.3591 4.53296 12.1191 4.29297L10.8525 3.02637Z" fill="#525F72" stroke="#525F72"/>
<path d="M12.4912 13.0464C12.6733 13.0464 12.825 13.1973 12.8252 13.3794C12.8252 13.5681 12.6756 13.7133 12.5 13.7134C12.3062 13.7134 12.1582 13.5583 12.1582 13.3794C12.1584 13.1975 12.3093 13.0466 12.4912 13.0464Z" fill="#525F72" stroke="#525F72"/>
<path d="M7.49902 8.04639C7.68111 8.04639 7.83283 8.19735 7.83301 8.37939C7.83301 8.56812 7.68342 8.71331 7.50781 8.71338C7.31404 8.71338 7.16602 8.55834 7.16602 8.37939C7.1662 8.19746 7.31709 8.04657 7.49902 8.04639Z" fill="#525F72" stroke="#525F72"/>
<path d="M7.49987 14.0048C7.34154 14.0048 7.1832 13.9465 7.0582 13.8215C6.81654 13.5798 6.81654 13.1798 7.0582 12.9381L12.0582 7.93809C12.2999 7.69642 12.6999 7.69642 12.9415 7.93809C13.1832 8.17975 13.1832 8.5798 12.9415 8.82147L7.94153 13.8215C7.81653 13.9465 7.6582 14.0048 7.49987 14.0048Z" fill="#525F72"/>
</svg>
