<svg width="24" height="24" viewBox="0 0 24 24" fill="none" xmlns="http://www.w3.org/2000/svg">
<rect width="24" height="24" rx="12" fill="#EFF0F2"/>
<path d="M10.5602 11.3998C9.83063 11.3998 9.24023 10.8094 9.24023 10.0798C9.24023 9.35017 9.83063 8.75977 10.5602 8.75977C11.2898 8.75977 11.8802 9.35017 11.8802 10.0798C11.8802 10.8094 11.2898 11.3998 10.5602 11.3998ZM10.5602 9.47977C10.229 9.47977 9.96023 9.74857 9.96023 10.0798C9.96023 10.411 10.229 10.6798 10.5602 10.6798C10.8914 10.6798 11.1602 10.411 11.1602 10.0798C11.1602 9.74857 10.8914 9.47977 10.5602 9.47977Z" fill="#909AA8"/>
<path d="M13.4398 17.1598H10.5598C7.95344 17.1598 6.83984 16.0462 6.83984 13.4398V10.5598C6.83984 7.95344 7.95344 6.83984 10.5598 6.83984H12.4798C12.6766 6.83984 12.8398 7.00304 12.8398 7.19984C12.8398 7.39664 12.6766 7.55984 12.4798 7.55984H10.5598C8.34704 7.55984 7.55984 8.34704 7.55984 10.5598V13.4398C7.55984 15.6526 8.34704 16.4398 10.5598 16.4398H13.4398C15.6526 16.4398 16.4398 15.6526 16.4398 13.4398V11.0398C16.4398 10.843 16.603 10.6798 16.7998 10.6798C16.9966 10.6798 17.1598 10.843 17.1598 11.0398V13.4398C17.1598 16.0462 16.0462 17.1598 13.4398 17.1598Z" fill="#909AA8"/>
<path d="M13.7622 10.9204C13.575 10.9204 13.4022 10.8532 13.2774 10.7236C13.1286 10.5748 13.0566 10.354 13.0902 10.1284L13.1862 9.46124C13.2102 9.29324 13.311 9.08684 13.4358 8.96684L15.1782 7.22444C15.8742 6.52844 16.479 6.92684 16.7766 7.22444C17.0598 7.50764 17.1894 7.80524 17.1606 8.11244C17.1366 8.35724 17.0118 8.59244 16.7766 8.82284L15.0342 10.5652C14.9142 10.6852 14.7078 10.786 14.5398 10.8148L13.8726 10.9108C13.8342 10.9204 13.7958 10.9204 13.7622 10.9204ZM15.6822 7.73804L13.9398 9.48044C13.9254 9.49484 13.9014 9.54764 13.8966 9.57164L13.8054 10.1956L14.4342 10.1092C14.4534 10.1044 14.5062 10.0804 14.5254 10.0612L16.2678 8.31884C16.3734 8.21324 16.4358 8.11724 16.4406 8.04524C16.4502 7.94444 16.3494 7.81964 16.2678 7.73804C16.0182 7.48844 15.903 7.51724 15.6822 7.73804Z" fill="#909AA8"/>
<path d="M16.2726 9.1824C16.239 9.1824 16.2054 9.1776 16.1766 9.168C15.5334 8.9856 15.0198 8.472 14.8374 7.8288C14.7846 7.6368 14.895 7.44 15.087 7.3872C15.279 7.3344 15.4758 7.4448 15.5286 7.6368C15.6438 8.04 15.9654 8.3664 16.3734 8.4816C16.5654 8.5344 16.6758 8.736 16.623 8.9232C16.5702 9.0768 16.4262 9.1824 16.2726 9.1824Z" fill="#909AA8"/>
<path d="M7.52088 15.6959C7.40568 15.6959 7.29048 15.6383 7.22328 15.5375C7.11288 15.3743 7.15608 15.1487 7.31928 15.0383L9.68568 13.4495C10.2041 13.1039 10.9193 13.1423 11.3897 13.5407L11.5481 13.6799C11.7881 13.8863 12.1961 13.8863 12.4313 13.6799L14.4281 11.9663C14.9369 11.5295 15.7385 11.5295 16.2521 11.9663L17.0345 12.6383C17.1833 12.7679 17.2025 12.9935 17.0729 13.1471C16.9433 13.2959 16.7177 13.3151 16.5641 13.1855L15.7817 12.5135C15.5417 12.3071 15.1337 12.3071 14.8985 12.5135L12.9017 14.2271C12.3929 14.6639 11.5913 14.6639 11.0777 14.2271L10.9193 14.0879C10.6985 13.9007 10.3337 13.8815 10.0889 14.0495L7.72728 15.6383C7.66008 15.6767 7.58808 15.6959 7.52088 15.6959Z" fill="#909AA8"/>
</svg>
