<svg width="48" height="48" viewBox="0 0 48 48" fill="none" xmlns="http://www.w3.org/2000/svg">
<rect width="48" height="48" rx="24" fill="#EDF4F4"/>
<path d="M23.9004 23.161C24.6333 23.161 25.3498 22.9437 25.9593 22.5364C26.5687 22.1292 27.0437 21.5504 27.3241 20.8732C27.6046 20.196 27.6779 19.4509 27.5349 18.732C27.3918 18.0132 27.0388 17.3529 26.5205 16.8346C26.0021 16.3164 25.3418 15.9635 24.6229 15.8206C23.904 15.6777 23.1589 15.7512 22.4817 16.0318C21.8046 16.3124 21.2259 16.7875 20.8188 17.397C20.4117 18.0065 20.1945 18.7231 20.1946 19.456C20.1958 20.4384 20.5867 21.3802 21.2814 22.0748C21.9761 22.7694 22.918 23.16 23.9004 23.161ZM23.9004 17.2503C24.3366 17.2503 24.7631 17.3796 25.1258 17.622C25.4886 17.8644 25.7713 18.2089 25.9382 18.6119C26.1052 19.015 26.1489 19.4585 26.0637 19.8863C25.9786 20.3142 25.7686 20.7072 25.4601 21.0157C25.1516 21.3242 24.7586 21.5343 24.3307 21.6194C23.9028 21.7045 23.4593 21.6608 23.0563 21.4939C22.6532 21.3269 22.3087 21.0442 22.0664 20.6815C21.824 20.3187 21.6946 19.8923 21.6946 19.456C21.6954 18.8713 21.9281 18.3107 22.3416 17.8972C22.755 17.4837 23.3156 17.2511 23.9004 17.2503ZM16.8999 25.339C17.4636 25.339 18.0146 25.1719 18.4833 24.8587C18.9519 24.5455 19.3172 24.1004 19.5329 23.5797C19.7486 23.0589 19.8051 22.4859 19.6951 21.933C19.5851 21.3802 19.3137 20.8723 18.9151 20.4738C18.5166 20.0752 18.0087 19.8037 17.4559 19.6938C16.903 19.5838 16.33 19.6402 15.8092 19.856C15.2885 20.0717 14.8434 20.437 14.5302 20.9056C14.217 21.3743 14.0499 21.9253 14.0499 22.489C14.0499 23.2449 14.3501 23.9698 14.8846 24.5043C15.4191 25.0387 16.144 25.339 16.8999 25.339ZM16.8999 21.139C17.1669 21.139 17.4279 21.2182 17.6499 21.3665C17.8719 21.5149 18.0449 21.7257 18.1471 21.9724C18.2493 22.2191 18.276 22.4905 18.2239 22.7524C18.1718 23.0143 18.0433 23.2548 17.8545 23.4436C17.6657 23.6324 17.4251 23.761 17.1632 23.8131C16.9014 23.8652 16.6299 23.8384 16.3833 23.7363C16.1366 23.6341 15.9257 23.461 15.7774 23.239C15.6291 23.017 15.5499 22.756 15.5499 22.489C15.5499 22.131 15.6921 21.7876 15.9453 21.5344C16.1985 21.2812 16.5418 21.139 16.8999 21.139ZM30.9001 25.339C31.4638 25.339 32.0148 25.1719 32.4835 24.8587C32.9522 24.5455 33.3175 24.1004 33.5332 23.5797C33.7489 23.0589 33.8053 22.4859 33.6954 21.933C33.5854 21.3802 33.314 20.8723 32.9154 20.4738C32.5168 20.0752 32.009 19.8037 31.4561 19.6938C30.9033 19.5838 30.3302 19.6402 29.8095 19.856C29.2887 20.0717 28.8436 20.437 28.5304 20.9056C28.2173 21.3743 28.0501 21.9253 28.0501 22.489C28.0501 23.2449 28.3504 23.9698 28.8849 24.5043C29.4194 25.0387 30.1443 25.339 30.9001 25.339ZM30.9001 21.139C31.1671 21.139 31.4281 21.2182 31.6501 21.3665C31.8722 21.5149 32.0452 21.7257 32.1474 21.9724C32.2495 22.2191 32.2763 22.4905 32.2242 22.7524C32.1721 23.0143 32.0435 23.2548 31.8547 23.4436C31.6659 23.6324 31.4254 23.761 31.1635 23.8131C30.9016 23.8652 30.6302 23.8384 30.3835 23.7363C30.1368 23.6341 29.926 23.461 29.7776 23.239C29.6293 23.017 29.5501 22.756 29.5501 22.489C29.5501 22.131 29.6924 21.7876 29.9455 21.5344C30.1987 21.2812 30.5421 21.139 30.9001 21.139ZM30.9999 26.8435C30.3424 26.8479 29.6964 27.0162 29.1204 27.3333C28.5728 26.4663 27.818 25.7493 26.9241 25.247C26.0302 24.7446 25.0254 24.4726 24.0001 24.4555C22.9749 24.4726 21.97 24.7446 21.0761 25.247C20.1822 25.7493 19.4275 26.4663 18.8799 27.3333C18.3039 27.0162 17.6579 26.8479 17.0004 26.8435C15.8205 26.9011 14.7114 27.4231 13.9151 28.2956C13.1188 29.168 12.7 30.3201 12.7501 31.5003C12.7501 31.6992 12.8291 31.8899 12.9698 32.0306C13.1104 32.1712 13.3012 32.2503 13.5001 32.2503C13.699 32.2503 13.8898 32.1712 14.0305 32.0306C14.1711 31.8899 14.2501 31.6992 14.2501 31.5003C14.201 30.7181 14.4621 29.948 14.977 29.3571C15.4918 28.7661 16.2188 28.402 17.0004 28.3435C17.4148 28.3467 17.8217 28.4548 18.1831 28.6578C17.8297 29.5486 17.6487 30.4984 17.6499 31.4568C17.6499 31.6557 17.7289 31.8464 17.8695 31.9871C18.0102 32.1277 18.201 32.2068 18.3999 32.2068C18.5988 32.2068 18.7896 32.1277 18.9302 31.9871C19.0709 31.8464 19.1499 31.6557 19.1499 31.4568C19.1499 28.423 21.3249 25.9555 24.0001 25.9555C26.6754 25.9555 28.8504 28.423 28.8504 31.4568C28.8504 31.6557 28.9294 31.8464 29.07 31.9871C29.2107 32.1277 29.4015 32.2068 29.6004 32.2068C29.7993 32.2068 29.9901 32.1277 30.1307 31.9871C30.2714 31.8464 30.3504 31.6557 30.3504 31.4568C30.3516 30.4984 30.1706 29.5486 29.8171 28.6578C30.1785 28.4548 30.5854 28.3467 30.9999 28.3435C31.7814 28.402 32.5085 28.7661 33.0233 29.3571C33.5381 29.948 33.7993 30.7181 33.7501 31.5003C33.7501 31.6992 33.8291 31.8899 33.9698 32.0306C34.1104 32.1712 34.3012 32.2503 34.5001 32.2503C34.699 32.2503 34.8898 32.1712 35.0305 32.0306C35.1711 31.8899 35.2501 31.6992 35.2501 31.5003C35.3003 30.3201 34.8815 29.168 34.0852 28.2956C33.2888 27.4231 32.1797 26.9011 30.9999 26.8435Z" fill="#4E918F"/>
</svg>
