<svg width="22" height="23" viewBox="0 0 22 23" fill="none" xmlns="http://www.w3.org/2000/svg">
<g clip-path="url(#clip0_1_1299)">
<path d="M22.0001 11.7548C22.0001 10.8119 21.9252 10.1239 21.7632 9.4104H11.2246V13.6659H17.4105C17.2858 14.7235 16.6124 16.3162 15.1157 17.3864L15.0948 17.5288L18.4269 20.166L18.6577 20.1895C20.7778 18.1891 22.0001 15.2459 22.0001 11.7548Z" fill="#4285F4"/>
<path d="M11.2245 22.9673C14.2551 22.9673 16.7993 21.9479 18.6576 20.1897L15.1156 17.3865C14.1678 18.0618 12.8957 18.5332 11.2245 18.5332C8.25627 18.5332 5.73701 16.5329 4.83897 13.7681L4.70734 13.7795L1.24258 16.5189L1.19727 16.6475C3.04305 20.3934 6.83444 22.9673 11.2245 22.9673Z" fill="#34A853"/>
<path d="M4.83895 13.7679C4.602 13.0544 4.46486 12.2898 4.46486 11.4999C4.46486 10.7099 4.602 9.94548 4.82649 9.23197L4.82021 9.08002L1.31203 6.29663L1.19725 6.35241C0.436513 7.90686 0 9.65245 0 11.4999C0 13.3474 0.436513 15.0929 1.19725 16.6474L4.83895 13.7679Z" fill="#FBBC05"/>
<path d="M11.2245 4.46689C13.3322 4.46689 14.7539 5.397 15.5646 6.17427L18.7324 3.01442C16.7869 1.16694 14.2551 0.032959 11.2245 0.032959C6.83444 0.032959 3.04305 2.60668 1.19727 6.35258L4.8265 9.23215C5.73702 6.4673 8.25627 4.46689 11.2245 4.46689Z" fill="#EB4335"/>
</g>
<defs>
<clipPath id="clip0_1_1299">
<rect width="22" height="23" rx="10" fill="white"/>
</clipPath>
</defs>
</svg>
