<svg width="20" height="21" viewBox="0 0 20 21" fill="none" xmlns="http://www.w3.org/2000/svg">
<path d="M7.43945 3.15674C8.61555 2.24228 10.5333 2.19783 11.7539 3.05518V3.05615L16.9043 6.66455H16.9053C17.3201 6.95393 17.7131 7.42892 18.0029 7.98389C18.2928 8.539 18.458 9.13294 18.458 9.63818V15.7046C18.458 17.7041 16.8308 19.3384 14.8242 19.3384H5.1748C3.16906 19.3384 1.54124 17.7051 1.54102 15.6968V9.521C1.54109 9.04894 1.68938 8.48476 1.95215 7.94971C2.18205 7.48165 2.48373 7.06717 2.80762 6.7749L2.94824 6.65771L7.43945 3.15674ZM9.58496 2.69287C8.96647 2.70636 8.33067 2.86882 7.80859 3.19971L7.5918 3.35205L3.10059 6.85205L3.09766 6.854C2.72531 7.14781 2.40477 7.59813 2.17871 8.05713C1.95306 8.51543 1.7911 9.04445 1.79102 9.521V15.6968C1.79124 17.5625 3.30526 19.0884 5.1748 19.0884H14.8242C16.692 19.0884 18.208 17.5724 18.208 15.7046V9.63818C18.208 9.13282 18.031 8.57505 17.7812 8.09619C17.5317 7.61784 17.1747 7.15296 16.7559 6.8667L11.6113 3.26221C11.032 2.85571 10.2923 2.67752 9.58496 2.69287Z" fill="white" stroke="white"/>
<path d="M10 13.2549C10.0301 13.2549 10.0613 13.2673 10.0869 13.293C10.1126 13.3186 10.125 13.3497 10.125 13.3799V15.8799C10.125 15.91 10.1126 15.9412 10.0869 15.9668C10.0613 15.9924 10.0301 16.0049 10 16.0049C9.96985 16.0049 9.93873 15.9924 9.91309 15.9668C9.88744 15.9412 9.875 15.91 9.875 15.8799V13.3799C9.875 13.3497 9.88744 13.3186 9.91309 13.293C9.93873 13.2673 9.96985 13.2549 10 13.2549Z" fill="white" stroke="white"/>
</svg>
