<svg width="20" height="21" viewBox="0 0 20 21" fill="none" xmlns="http://www.w3.org/2000/svg">
<path d="M9.91797 2.94482C10.9125 2.7243 11.9944 2.88303 12.9512 3.10791H12.9521L14.3428 3.43311C16.2327 3.87732 17.3165 4.5545 17.9082 5.50244C18.4919 6.45063 18.6221 7.72027 18.1787 9.60693L17.3623 13.0903C17.0159 14.5647 16.4964 15.5842 15.8213 16.2339C15.1591 16.871 14.3012 17.1968 13.1738 17.1968C12.9704 17.1968 12.7629 17.1884 12.542 17.1655L12.5293 17.1646L12.2168 17.1323C11.8945 17.0918 11.5421 17.0259 11.1768 16.936L11.1729 16.9351L9.77344 16.6021H9.77246C7.90777 16.1612 6.78533 15.4716 6.2041 14.5337C5.65956 13.6546 5.52422 12.4496 5.86914 10.77L5.94434 10.4272L6.76074 6.93506V6.93408C6.93827 6.1675 7.14398 5.56612 7.3877 5.07861L7.39062 5.07275C8.03953 3.73345 8.9563 3.15813 9.91797 2.94482ZM10.9326 3.08838C10.1668 3.08838 9.49837 3.2471 8.93066 3.60791C8.36381 3.96824 7.94006 4.50243 7.61523 5.1792C7.37894 5.66996 7.17637 6.26446 7.00391 6.98877V6.99072L6.1875 10.4819C5.80859 12.0912 5.79868 13.3917 6.42285 14.3979C7.0466 15.4034 8.21693 15.975 9.8252 16.3579L11.2236 16.6899V16.6909C11.6975 16.805 12.1472 16.8751 12.5557 16.9106C13.7657 17.0298 14.7694 16.8328 15.5527 16.1509C16.316 15.4864 16.7868 14.4314 17.1113 13.0356L17.9277 9.55225V9.55127C18.3114 7.90561 18.2981 6.61422 17.6914 5.6333C17.0844 4.65205 15.9351 4.06057 14.2783 3.67627H14.2793L12.8877 3.35107H12.8867C12.1701 3.17867 11.5145 3.0884 10.9326 3.08838Z" fill="#525F72" stroke="#525F72"/>
<path d="M7.55078 5.01514C7.56645 5.0212 7.58291 5.03234 7.59766 5.05225C7.63016 5.09622 7.63532 5.15163 7.61133 5.20361C7.37595 5.68614 7.17585 6.27918 7.0127 6.99951L6.19629 10.4907C5.81745 12.0998 5.80857 13.3996 6.43262 14.4058C7.05634 15.4113 8.22565 15.9838 9.83398 16.3667L11.2324 16.6987V16.6997C11.705 16.8135 12.154 16.8828 12.5615 16.9185V16.9194C12.6158 16.9245 12.6617 16.9586 12.6826 17.02C12.6937 17.0722 12.6751 17.1203 12.6348 17.1499C12.1367 17.4895 11.4924 17.7888 10.6455 18.063L10.6436 18.064L9.32422 18.4966C8.40147 18.7847 7.62339 18.9214 6.94141 18.9214C5.98166 18.9214 5.22984 18.6384 4.61328 18.0728C3.98293 17.4945 3.45767 16.5875 3.03418 15.2769V15.2759L1.9668 11.9849H1.96777C1.39368 10.206 1.4012 8.92776 1.88672 7.97607C2.3721 7.02473 3.39995 6.27069 5.16992 5.69678L6.48047 5.2749C6.91359 5.14164 7.21113 5.05816 7.46777 5.01416L7.47656 5.01318L7.48438 5.01123C7.51323 5.00526 7.53522 5.00919 7.55078 5.01514ZM6.32812 5.58838L5.25391 5.93799C3.73314 6.42801 2.64766 7.07186 2.125 8.09814C1.6029 9.12351 1.71751 10.3837 2.20703 11.9077L2.20801 11.9097L3.27441 15.2007V15.2017C3.76856 16.7223 4.41441 17.8088 5.43945 18.3335C6.46492 18.8583 7.72393 18.7464 9.24512 18.2563L9.24805 18.2554L10.5645 17.8218L10.5664 17.8208C10.5987 17.81 10.6282 17.7996 10.6504 17.7915C10.6737 17.783 10.6905 17.7768 10.708 17.771L12.3789 17.2144L10.665 16.8101L9.78125 16.6021C7.91697 16.1612 6.79513 15.4724 6.21387 14.5347C5.63277 13.5969 5.51639 12.2874 5.95312 10.4272L6.77051 6.93604L6.77148 6.92822C6.82741 6.67261 6.89016 6.43043 6.95898 6.21631L7.25879 5.28564L6.32812 5.58838Z" fill="#525F72" stroke="#525F72"/>
<path d="M10.5605 7.87207V7.87305L14.6025 8.89746L14.6035 8.89844C14.6627 8.91324 14.7081 8.97835 14.6904 9.0498L14.6895 9.05371C14.6851 9.07177 14.673 9.09316 14.6494 9.11133C14.6249 9.1301 14.5971 9.13768 14.5752 9.1377C14.5736 9.13761 14.5685 9.13791 14.5586 9.13672C14.5511 9.13582 14.5422 9.13452 14.5303 9.13281C14.5257 9.13216 14.5207 9.13062 14.5156 9.12988L10.498 8.11133H10.4961C10.4369 8.09636 10.3923 8.03046 10.4102 7.95898C10.425 7.9003 10.4898 7.85539 10.5605 7.87207Z" fill="#525F72" stroke="#525F72"/>
<path d="M12.1343 12.4548C12.0843 12.4548 12.0343 12.4465 11.9759 12.4381L9.55092 11.8215C9.21759 11.7381 9.01759 11.3965 9.10092 11.0631C9.18425 10.7298 9.52592 10.5298 9.85925 10.6131L12.2843 11.2298C12.6176 11.3131 12.8176 11.6548 12.7343 11.9881C12.6676 12.2715 12.4176 12.4548 12.1343 12.4548Z" fill="#525F72"/>
</svg>
