<svg width="20" height="21" viewBox="0 0 20 21" fill="none" xmlns="http://www.w3.org/2000/svg">
<path d="M15.0088 2.42139H15.0137L15.1836 2.42725C16.0305 2.47477 16.8237 2.8253 17.4404 3.43506C18.096 4.09982 18.4501 4.97199 18.4502 5.87939V7.89893C18.4538 8.6125 18.2173 9.17199 17.8379 9.55225C17.4583 9.93262 16.898 10.1714 16.1836 10.1714H13.334C13.3038 10.1714 13.2727 10.1589 13.2471 10.1333C13.2214 10.1077 13.209 10.0765 13.209 10.0464V4.22119C13.209 3.73871 13.3967 3.2903 13.7373 2.94971C14.0779 2.60912 14.5263 2.42144 15.0088 2.42139ZM15.0088 2.67139C14.6019 2.67144 14.2082 2.83231 13.9141 3.12646C13.6214 3.41912 13.459 3.80382 13.459 4.22119V9.92139H16.1836C16.7623 9.92139 17.2845 9.75208 17.6621 9.37451C18.0397 8.99694 18.209 8.47474 18.209 7.896V5.87939C18.2089 5.02922 17.8719 4.22113 17.2734 3.61279L17.2676 3.60693L17.0342 3.39697C16.468 2.9375 15.7641 2.68006 15.0234 2.67139H15.0088Z" fill="#525F72" stroke="#525F72"/>
<path d="M5.00879 2.42139H15.0088C15.0389 2.42139 15.0701 2.43394 15.0957 2.45947C15.1213 2.48512 15.1338 2.51624 15.1338 2.54639C15.1338 2.57653 15.1213 2.60766 15.0957 2.6333C15.0701 2.65883 15.0389 2.67139 15.0088 2.67139C14.1578 2.67156 13.4678 3.36234 13.4678 4.21338V18.3794C13.4678 18.7486 13.2658 19.0755 12.9355 19.2407L12.9326 19.2427C12.6156 19.4039 12.2285 19.3681 11.9355 19.147L11.9336 19.146L10.5088 18.0796L10.5078 18.0806C10.2438 17.8787 9.91088 17.9065 9.68164 18.0659L9.58887 18.1431L8.18848 19.5425C7.99811 19.7247 7.75838 19.8217 7.50098 19.8218C7.2406 19.8218 7.00432 19.7231 6.82617 19.5396L6.82227 19.5356L5.43848 18.144L5.4375 18.1431L5.33691 18.0591C5.12397 17.9129 4.84376 17.8913 4.60938 18.0151L4.50977 18.0796L3.08496 19.146L3.08301 19.147C2.79103 19.3673 2.41088 19.4046 2.08301 19.2407C1.75268 19.0756 1.55078 18.7487 1.55078 18.3794V5.87939C1.55084 4.71558 1.88224 3.86727 2.43945 3.31006C2.99667 2.75285 3.84498 2.42145 5.00879 2.42139ZM5.00098 2.67139C4.00848 2.67139 3.17685 2.90097 2.59961 3.47803C2.02242 4.05522 1.79204 4.88689 1.79199 5.87939V18.3794C1.79199 18.774 2.07572 18.9545 2.15234 19.0005L2.16797 19.0103L2.18555 19.019C2.34918 19.1008 2.64769 19.1586 2.9248 18.9458L2.92578 18.9468L4.34961 17.8794C4.52173 17.7522 4.72566 17.688 4.92578 17.688C5.18457 17.688 5.42635 17.7828 5.6084 17.9702L5.61328 17.9741L6.99609 19.3657L6.99707 19.3667C7.18336 19.553 7.41062 19.5718 7.50098 19.5718C7.59143 19.5717 7.8178 19.5526 8.00391 19.3667L9.4043 17.9663C9.74272 17.628 10.2777 17.5952 10.6543 17.8843L10.6602 17.8882L12.0762 18.9468L12.082 18.9507C12.3798 19.1671 12.6879 19.0887 12.8496 18.9917C12.9118 18.9544 13.209 18.7748 13.209 18.3794V4.21338C13.209 3.91929 13.2816 3.63889 13.4043 3.3999L13.7783 2.67139H5.00098Z" fill="#525F72" stroke="#525F72"/>
<path d="M10 9.00488H5C4.65833 9.00488 4.375 8.72155 4.375 8.37988C4.375 8.03822 4.65833 7.75488 5 7.75488H10C10.3417 7.75488 10.625 8.03822 10.625 8.37988C10.625 8.72155 10.3417 9.00488 10 9.00488Z" fill="#525F72"/>
<path d="M9.375 12.3384H5.625C5.28333 12.3384 5 12.055 5 11.7134C5 11.3717 5.28333 11.0884 5.625 11.0884H9.375C9.71667 11.0884 10 11.3717 10 11.7134C10 12.055 9.71667 12.3384 9.375 12.3384Z" fill="#525F72"/>
</svg>
