<svg width="16" height="16" viewBox="0 0 16 16" fill="none" xmlns="http://www.w3.org/2000/svg">
<path d="M8 1.83594C11.397 1.83611 14.166 4.60585 14.166 8.00293C14.1658 11.3999 11.3969 14.1688 8 14.1689C4.60292 14.1689 1.83318 11.4 1.83301 8.00293C1.83301 4.60574 4.60281 1.83594 8 1.83594ZM11.54 5.40918C11.1514 5.02058 10.5146 5.02058 10.126 5.40918L7.05273 8.48242L5.87305 7.30273L5.79785 7.23438C5.43236 6.93657 4.90071 6.93668 4.53516 7.23438L4.45898 7.30273C4.07093 7.69123 4.07093 8.32732 4.45898 8.71582L6.3457 10.6025C6.53167 10.7885 6.78539 10.8954 7.05273 10.8955C7.32018 10.8955 7.57373 10.7886 7.75977 10.6025L11.54 6.82324L11.5459 6.81641C11.9231 6.42599 11.9317 5.80095 11.54 5.40918Z" fill="#1FB356" stroke="#1FB356"/>
</svg>
