<svg width="20" height="21" viewBox="0 0 20 21" fill="none" xmlns="http://www.w3.org/2000/svg">
<path d="M8.96031 14.9302V16.6219C8.96031 18.0552 7.62697 19.2135 5.9853 19.2135C4.34363 19.2135 3.00195 18.0552 3.00195 16.6219V14.9302C3.00195 16.3635 4.3353 17.3802 5.9853 17.3802C7.62697 17.3802 8.96031 16.3552 8.96031 14.9302Z" stroke="#525F72" strokeLinecap="round" strokeLinejoin="round"/>
<path d="M8.95883 12.638C8.95883 13.0547 8.84216 13.438 8.64216 13.7713C8.15049 14.5797 7.14215 15.088 5.97548 15.088C4.80882 15.088 3.80047 14.5713 3.30881 13.7713C3.10881 13.438 2.99219 13.0547 2.99219 12.638C2.99219 11.9213 3.3255 11.2797 3.85884 10.813C4.4005 10.338 5.14214 10.0547 5.96714 10.0547C6.79214 10.0547 7.53383 10.3463 8.0755 10.813C8.6255 11.2713 8.95883 11.9213 8.95883 12.638Z" stroke="#525F72" strokeLinecap="round" strokeLinejoin="round"/>
<path d="M8.96031 12.638V14.9297C8.96031 16.363 7.62697 17.3797 5.9853 17.3797C4.34363 17.3797 3.00195 16.3547 3.00195 14.9297V12.638C3.00195 11.2047 4.3353 10.0464 5.9853 10.0464C6.8103 10.0464 7.55199 10.338 8.09366 10.8047C8.62699 11.2714 8.96031 11.9214 8.96031 12.638Z" stroke="#525F72" strokeLinecap="round" strokeLinejoin="round"/>
<path d="M18.3329 10.0214V11.7381C18.3329 12.1964 17.9662 12.5714 17.4995 12.588H15.8662C14.9662 12.588 14.1412 11.9297 14.0662 11.0297C14.0162 10.5047 14.2162 10.013 14.5662 9.67137C14.8745 9.3547 15.2995 9.17139 15.7662 9.17139H17.4995C17.9662 9.18805 18.3329 9.56302 18.3329 10.0214Z" stroke="#525F72" strokeLinecap="round" strokeLinejoin="round"/>
<path d="M1.66602 9.62972V7.96305C1.66602 5.69639 3.03268 4.11305 5.15768 3.84638C5.37435 3.81305 5.59935 3.79639 5.83268 3.79639H13.3327C13.5493 3.79639 13.7577 3.80471 13.9577 3.83804C16.1077 4.08804 17.4993 5.67972 17.4993 7.96305V9.1714H15.766C15.2993 9.1714 14.8743 9.35471 14.566 9.67138C14.216 10.013 14.016 10.5047 14.066 11.0297C14.141 11.9297 14.966 12.588 15.866 12.588H17.4993V13.7964C17.4993 16.2964 15.8327 17.9631 13.3327 17.9631H11.2493" stroke="#525F72" strokeLinecap="round" strokeLinejoin="round"/>
</svg>
